<svg id="svg" version="1.1" xmlns="http://www.w3.org/2000/svg" xmlns:xlink="http://www.w3.org/1999/xlink" width="400" height="400" viewBox="0, 0, 400,400"><g id="svgg"><path id="path0" d="M278.507 123.617 C 275.236 124.108,272.414 125.690,270.738 127.972 C 270.145 128.780,263.289 143.635,247.300 178.754 C 234.870 206.055,224.654 228.395,224.598 228.397 C 224.541 228.398,214.738 207.273,202.812 181.450 C 175.758 122.868,178.734 129.071,176.729 127.100 C 168.341 118.859,153.666 126.958,156.584 138.218 C 157.005 139.843,212.831 258.526,214.138 260.577 C 219.225 268.551,230.862 268.232,235.741 259.984 C 236.598 258.536,291.303 140.686,291.939 138.919 C 294.822 130.903,287.273 122.303,278.507 123.617 M125.100 125.501 C 108.803 129.157,106.106 151.235,121.069 158.498 C 132.897 164.240,146.051 156.031,146.064 142.900 C 146.075 131.406,136.011 123.053,125.100 125.501 M126.551 235.394 C 112.752 237.898,107.191 254.867,116.866 264.945 C 127.143 275.649,144.849 269.721,146.810 254.920 C 148.308 243.606,137.691 233.373,126.551 235.394 " stroke="none" fill="#fcdc04" fill-rule="evenodd"></path><path id="path1" d="M167.955 123.547 C 168.426 123.589,169.146 123.588,169.555 123.545 C 169.965 123.502,169.580 123.468,168.700 123.469 C 167.820 123.469,167.485 123.504,167.955 123.547 M163.762 124.476 C 161.868 125.303,159.901 126.685,158.820 127.947 C 158.036 128.863,156.683 131.150,156.835 131.302 C 156.875 131.342,157.202 130.808,157.562 130.115 C 158.775 127.775,161.247 125.699,164.300 124.457 C 165.180 124.100,165.765 123.806,165.600 123.806 C 165.435 123.805,164.608 124.107,163.762 124.476 M274.262 124.696 C 272.747 125.454,271.246 126.774,270.251 128.223 C 269.625 129.135,265.939 137.006,266.074 137.141 C 266.113 137.180,266.931 135.476,267.892 133.356 C 270.475 127.657,271.628 126.182,274.654 124.710 C 275.449 124.323,276.000 124.005,275.877 124.003 C 275.754 124.002,275.027 124.313,274.262 124.696 M173.958 124.887 C 177.394 126.739,178.156 127.885,183.115 138.656 C 185.282 143.362,187.086 147.181,187.124 147.143 C 187.263 147.003,179.173 129.727,178.477 128.679 C 177.307 126.916,173.877 124.178,172.872 124.205 C 172.777 124.207,173.266 124.514,173.958 124.887 M286.300 124.956 C 288.809 126.289,290.851 128.650,291.942 131.478 C 292.201 132.150,292.363 132.430,292.301 132.100 C 291.773 129.298,287.049 124.139,285.072 124.206 C 284.977 124.209,285.530 124.546,286.300 124.956 M126.552 125.141 C 126.801 125.189,127.161 125.187,127.352 125.137 C 127.544 125.087,127.340 125.048,126.900 125.050 C 126.460 125.053,126.304 125.094,126.552 125.141 M130.552 125.141 C 130.801 125.189,131.161 125.187,131.352 125.137 C 131.544 125.087,131.340 125.048,130.900 125.050 C 130.460 125.053,130.304 125.094,130.552 125.141 M136.407 126.739 C 139.777 128.465,142.383 131.079,144.342 134.700 C 145.119 136.137,145.218 136.021,144.476 134.543 C 142.740 131.087,138.194 126.858,135.400 126.102 C 135.125 126.028,135.578 126.314,136.407 126.739 M120.273 126.973 C 116.663 128.964,112.979 133.222,112.116 136.400 C 112.042 136.675,112.337 136.163,112.773 135.262 C 114.532 131.622,116.943 129.052,120.405 127.126 C 121.117 126.729,121.610 126.405,121.500 126.406 C 121.390 126.407,120.838 126.662,120.273 126.973 M156.069 135.500 C 156.069 136.380,156.104 136.715,156.147 136.245 C 156.189 135.774,156.188 135.054,156.145 134.645 C 156.102 134.235,156.068 134.620,156.069 135.500 M292.667 135.400 C 292.667 136.225,292.703 136.563,292.746 136.150 C 292.789 135.738,292.789 135.063,292.746 134.650 C 292.703 134.238,292.667 134.575,292.667 135.400 M145.031 136.100 C 145.031 136.210,145.152 136.615,145.300 137.000 C 145.448 137.385,145.572 137.565,145.576 137.400 C 145.579 137.235,145.458 136.830,145.307 136.500 C 145.156 136.170,145.032 135.990,145.031 136.100 M111.714 137.514 C 111.641 137.807,111.619 138.086,111.666 138.133 C 111.713 138.180,111.812 137.979,111.886 137.686 C 111.959 137.393,111.981 137.114,111.934 137.067 C 111.887 137.020,111.788 137.221,111.714 137.514 M265.438 138.310 C 264.835 139.550,264.902 139.723,265.523 138.530 C 265.801 137.997,265.993 137.527,265.951 137.485 C 265.910 137.443,265.678 137.814,265.438 138.310 M292.200 138.450 C 292.200 138.588,291.706 139.774,291.102 141.086 C 290.499 142.398,290.035 143.501,290.071 143.538 C 290.161 143.628,292.165 139.310,292.320 138.691 C 292.388 138.421,292.389 138.200,292.322 138.200 C 292.255 138.200,292.200 138.313,292.200 138.450 M156.424 138.600 C 156.421 138.765,156.542 139.170,156.693 139.500 C 157.046 140.272,157.052 139.913,156.700 139.000 C 156.552 138.615,156.428 138.435,156.424 138.600 M264.438 140.510 C 263.835 141.750,263.902 141.923,264.523 140.730 C 264.801 140.197,264.993 139.727,264.951 139.685 C 264.910 139.643,264.678 140.014,264.438 140.510 M157.075 140.400 C 157.222 140.930,160.062 146.805,160.135 146.731 C 160.175 146.692,159.483 145.184,158.599 143.380 C 157.715 141.576,157.030 140.235,157.075 140.400 M111.069 142.900 C 111.069 143.780,111.104 144.115,111.147 143.645 C 111.189 143.174,111.188 142.454,111.145 142.045 C 111.102 141.635,111.068 142.020,111.069 142.900 M146.269 142.900 C 146.269 143.780,146.304 144.115,146.347 143.645 C 146.389 143.174,146.388 142.454,146.345 142.045 C 146.302 141.635,146.268 142.020,146.269 142.900 M263.438 142.710 C 262.835 143.950,262.902 144.123,263.523 142.930 C 263.801 142.397,263.993 141.927,263.951 141.885 C 263.910 141.843,263.678 142.214,263.438 142.710 M288.631 146.431 C 287.951 147.878,287.426 149.093,287.464 149.131 C 287.502 149.169,288.089 148.016,288.769 146.569 C 289.449 145.122,289.974 143.907,289.936 143.869 C 289.898 143.831,289.311 144.984,288.631 146.431 M259.831 150.631 C 258.167 154.283,256.836 157.303,256.874 157.341 C 256.912 157.379,258.305 154.421,259.969 150.769 C 261.633 147.117,262.964 144.097,262.926 144.059 C 262.888 144.021,261.495 146.979,259.831 150.631 M160.220 147.100 C 160.220 147.210,160.571 147.975,161.000 148.800 C 161.429 149.625,161.780 150.210,161.780 150.100 C 161.780 149.990,161.429 149.225,161.000 148.400 C 160.571 147.575,160.220 146.990,160.220 147.100 M187.219 147.500 C 187.219 147.610,187.480 148.195,187.800 148.800 C 188.120 149.405,188.381 149.810,188.381 149.700 C 188.381 149.590,188.120 149.005,187.800 148.400 C 187.480 147.795,187.219 147.390,187.219 147.500 M112.118 149.200 C 113.105 152.881,118.574 158.351,122.200 159.283 C 122.475 159.354,122.152 159.151,121.483 158.833 C 117.603 156.989,114.486 153.918,112.689 150.170 C 112.301 149.362,112.045 148.925,112.118 149.200 M144.603 150.351 C 143.235 153.392,140.777 156.132,137.743 157.999 C 136.849 158.550,136.198 159.000,136.297 159.000 C 137.340 159.000,141.568 155.457,143.119 153.283 C 143.974 152.085,145.529 149.062,145.371 148.904 C 145.327 148.860,144.981 149.511,144.603 150.351 M285.431 153.331 C 284.424 155.496,283.631 157.298,283.669 157.336 C 283.707 157.373,284.562 155.633,285.569 153.469 C 286.576 151.304,287.369 149.502,287.331 149.464 C 287.293 149.427,286.438 151.167,285.431 153.331 M188.419 150.100 C 188.419 150.210,188.680 150.795,189.000 151.400 C 189.320 152.005,189.581 152.410,189.581 152.300 C 189.581 152.190,189.320 151.605,189.000 151.000 C 188.680 150.395,188.419 149.990,188.419 150.100 M161.823 150.526 C 162.042 151.168,166.671 160.796,166.731 160.736 C 166.809 160.658,162.072 150.599,161.871 150.415 C 161.802 150.352,161.780 150.402,161.823 150.526 M189.619 152.700 C 189.619 152.810,189.880 153.395,190.200 154.000 C 190.520 154.605,190.781 155.010,190.781 154.900 C 190.781 154.790,190.520 154.205,190.200 153.600 C 189.880 152.995,189.619 152.590,189.619 152.700 M190.819 155.300 C 190.819 155.410,191.080 155.995,191.400 156.600 C 191.720 157.205,191.981 157.610,191.981 157.500 C 191.981 157.390,191.720 156.805,191.400 156.200 C 191.080 155.595,190.819 155.190,190.819 155.300 M256.238 158.510 C 255.635 159.750,255.702 159.923,256.323 158.730 C 256.601 158.197,256.793 157.727,256.751 157.685 C 256.710 157.643,256.478 158.014,256.238 158.510 M282.231 160.231 C 281.551 161.678,281.026 162.893,281.064 162.931 C 281.102 162.969,281.689 161.816,282.369 160.369 C 283.049 158.922,283.574 157.707,283.536 157.669 C 283.498 157.631,282.911 158.784,282.231 160.231 M192.019 157.900 C 192.019 158.010,192.280 158.595,192.600 159.200 C 192.920 159.805,193.181 160.210,193.181 160.100 C 193.181 159.990,192.920 159.405,192.600 158.800 C 192.280 158.195,192.019 157.790,192.019 157.900 M255.238 160.710 C 254.635 161.950,254.702 162.123,255.323 160.930 C 255.601 160.397,255.793 159.927,255.751 159.885 C 255.710 159.843,255.478 160.214,255.238 160.710 M193.238 160.524 C 193.374 161.018,201.660 178.807,201.724 178.742 C 201.762 178.704,199.963 174.712,197.726 169.872 C 194.070 161.958,193.048 159.830,193.238 160.524 M166.820 161.100 C 166.820 161.210,167.171 161.975,167.600 162.800 C 168.029 163.625,168.380 164.210,168.380 164.100 C 168.380 163.990,168.029 163.225,167.600 162.400 C 167.171 161.575,166.820 160.990,166.820 161.100 M254.238 162.910 C 253.635 164.150,253.702 164.323,254.323 163.130 C 254.601 162.597,254.793 162.127,254.751 162.085 C 254.710 162.043,254.478 162.414,254.238 162.910 M279.631 165.831 C 278.951 167.278,278.426 168.493,278.464 168.531 C 278.502 168.569,279.089 167.416,279.769 165.969 C 280.449 164.522,280.974 163.307,280.936 163.269 C 280.898 163.231,280.311 164.384,279.631 165.831 M251.131 169.731 C 249.741 172.778,248.635 175.302,248.673 175.340 C 248.711 175.378,249.879 172.916,251.269 169.869 C 252.659 166.822,253.765 164.298,253.727 164.260 C 253.689 164.222,252.521 166.684,251.131 169.731 M168.420 164.500 C 168.420 164.610,168.771 165.375,169.200 166.200 C 169.629 167.025,169.980 167.610,169.980 167.500 C 169.980 167.390,169.629 166.625,169.200 165.800 C 168.771 164.975,168.420 164.390,168.420 164.500 M170.023 167.926 C 170.242 168.568,174.871 178.196,174.931 178.136 C 175.009 178.058,170.272 167.999,170.071 167.815 C 170.002 167.752,169.980 167.802,170.023 167.926 M277.031 171.431 C 276.351 172.878,275.826 174.093,275.864 174.131 C 275.902 174.169,276.489 173.016,277.169 171.569 C 277.849 170.122,278.374 168.907,278.336 168.869 C 278.298 168.831,277.711 169.984,277.031 171.431 M275.139 175.510 C 274.405 177.007,274.472 177.185,275.223 175.730 C 275.555 175.086,275.793 174.527,275.752 174.486 C 275.711 174.445,275.435 174.906,275.139 175.510 M248.038 176.510 C 247.435 177.750,247.502 177.923,248.123 176.730 C 248.401 176.197,248.593 175.727,248.551 175.685 C 248.510 175.643,248.278 176.014,248.038 176.510 M273.231 179.631 C 272.551 181.078,272.026 182.293,272.064 182.331 C 272.102 182.369,272.689 181.216,273.369 179.769 C 274.049 178.322,274.574 177.107,274.536 177.069 C 274.498 177.031,273.911 178.184,273.231 179.631 M247.038 178.710 C 246.435 179.950,246.502 180.123,247.123 178.930 C 247.401 178.397,247.593 177.927,247.551 177.885 C 247.510 177.843,247.278 178.214,247.038 178.710 M175.020 178.500 C 175.020 178.610,175.371 179.375,175.800 180.200 C 176.229 181.025,176.580 181.610,176.580 181.500 C 176.580 181.390,176.229 180.625,175.800 179.800 C 175.371 178.975,175.020 178.390,175.020 178.500 M201.819 179.100 C 201.819 179.210,202.080 179.795,202.400 180.400 C 202.720 181.005,202.981 181.410,202.981 181.300 C 202.981 181.190,202.720 180.605,202.400 180.000 C 202.080 179.395,201.819 178.990,201.819 179.100 M246.038 180.910 C 245.435 182.150,245.502 182.323,246.123 181.130 C 246.401 180.597,246.593 180.127,246.551 180.085 C 246.510 180.043,246.278 180.414,246.038 180.910 M203.019 181.700 C 203.019 181.810,203.280 182.395,203.600 183.000 C 203.920 183.605,204.181 184.010,204.181 183.900 C 204.181 183.790,203.920 183.205,203.600 182.600 C 203.280 181.995,203.019 181.590,203.019 181.700 M176.623 181.926 C 176.842 182.568,181.471 192.196,181.531 192.136 C 181.609 192.058,176.872 181.999,176.671 181.815 C 176.602 181.752,176.580 181.802,176.623 181.926 M242.931 187.731 C 241.541 190.778,240.435 193.302,240.473 193.340 C 240.511 193.378,241.679 190.916,243.069 187.869 C 244.459 184.822,245.565 182.298,245.527 182.260 C 245.489 182.222,244.321 184.684,242.931 187.731 M270.631 185.231 C 269.951 186.678,269.426 187.893,269.464 187.931 C 269.502 187.969,270.089 186.816,270.769 185.369 C 271.449 183.922,271.974 182.707,271.936 182.669 C 271.898 182.631,271.311 183.784,270.631 185.231 M204.219 184.300 C 204.219 184.410,204.480 184.995,204.800 185.600 C 205.120 186.205,205.381 186.610,205.381 186.500 C 205.381 186.390,205.120 185.805,204.800 185.200 C 204.480 184.595,204.219 184.190,204.219 184.300 M205.419 186.900 C 205.419 187.010,205.680 187.595,206.000 188.200 C 206.320 188.805,206.581 189.210,206.581 189.100 C 206.581 188.990,206.320 188.405,206.000 187.800 C 205.680 187.195,205.419 186.790,205.419 186.900 M268.031 190.831 C 267.351 192.278,266.826 193.493,266.864 193.531 C 266.902 193.569,267.489 192.416,268.169 190.969 C 268.849 189.522,269.374 188.307,269.336 188.269 C 269.298 188.231,268.711 189.384,268.031 190.831 M206.619 189.500 C 206.619 189.610,206.880 190.195,207.200 190.800 C 207.520 191.405,207.781 191.810,207.781 191.700 C 207.781 191.590,207.520 191.005,207.200 190.400 C 206.880 189.795,206.619 189.390,206.619 189.500 M207.838 192.124 C 207.974 192.618,216.260 210.407,216.324 210.342 C 216.362 210.304,214.563 206.312,212.326 201.472 C 208.670 193.558,207.648 191.430,207.838 192.124 M181.620 192.500 C 181.620 192.610,181.971 193.375,182.400 194.200 C 182.829 195.025,183.180 195.610,183.180 195.500 C 183.180 195.390,182.829 194.625,182.400 193.800 C 181.971 192.975,181.620 192.390,181.620 192.500 M239.838 194.510 C 239.235 195.750,239.302 195.923,239.923 194.730 C 240.201 194.197,240.393 193.727,240.351 193.685 C 240.310 193.643,240.078 194.014,239.838 194.510 M264.831 197.731 C 263.824 199.896,263.031 201.698,263.069 201.736 C 263.107 201.773,263.962 200.033,264.969 197.869 C 265.976 195.704,266.769 193.902,266.731 193.864 C 266.693 193.827,265.838 195.567,264.831 197.731 M183.220 195.900 C 183.220 196.010,183.571 196.775,184.000 197.600 C 184.429 198.425,184.780 199.010,184.780 198.900 C 184.780 198.790,184.429 198.025,184.000 197.200 C 183.571 196.375,183.220 195.790,183.220 195.900 M238.838 196.710 C 238.235 197.950,238.302 198.123,238.923 196.930 C 239.201 196.397,239.393 195.927,239.351 195.885 C 239.310 195.843,239.078 196.214,238.838 196.710 M237.838 198.910 C 237.235 200.150,237.302 200.323,237.923 199.130 C 238.201 198.597,238.393 198.127,238.351 198.085 C 238.310 198.043,238.078 198.414,237.838 198.910 M184.823 199.326 C 185.042 199.968,189.671 209.596,189.731 209.536 C 189.809 209.458,185.072 199.399,184.871 199.215 C 184.802 199.152,184.780 199.202,184.823 199.326 M234.731 205.731 C 233.341 208.778,232.235 211.302,232.273 211.340 C 232.311 211.378,233.479 208.916,234.869 205.869 C 236.259 202.822,237.365 200.298,237.327 200.260 C 237.289 200.222,236.121 202.684,234.731 205.731 M261.631 204.631 C 260.951 206.078,260.426 207.293,260.464 207.331 C 260.502 207.369,261.089 206.216,261.769 204.769 C 262.449 203.322,262.974 202.107,262.936 202.069 C 262.898 202.031,262.311 203.184,261.631 204.631 M259.031 210.231 C 258.351 211.678,257.826 212.893,257.864 212.931 C 257.902 212.969,258.489 211.816,259.169 210.369 C 259.849 208.922,260.374 207.707,260.336 207.669 C 260.298 207.631,259.711 208.784,259.031 210.231 M189.820 209.900 C 189.820 210.010,190.171 210.775,190.600 211.600 C 191.029 212.425,191.380 213.010,191.380 212.900 C 191.380 212.790,191.029 212.025,190.600 211.200 C 190.171 210.375,189.820 209.790,189.820 209.900 M216.419 210.700 C 216.419 210.810,216.680 211.395,217.000 212.000 C 217.320 212.605,217.581 213.010,217.581 212.900 C 217.581 212.790,217.320 212.205,217.000 211.600 C 216.680 210.995,216.419 210.590,216.419 210.700 M231.638 212.510 C 231.035 213.750,231.102 213.923,231.723 212.730 C 232.001 212.197,232.193 211.727,232.151 211.685 C 232.110 211.643,231.878 212.014,231.638 212.510 M191.423 213.326 C 191.642 213.968,196.271 223.596,196.331 223.536 C 196.409 223.458,191.672 213.399,191.471 213.215 C 191.402 213.152,191.380 213.202,191.423 213.326 M217.619 213.300 C 217.619 213.410,217.880 213.995,218.200 214.600 C 218.520 215.205,218.781 215.610,218.781 215.500 C 218.781 215.390,218.520 214.805,218.200 214.200 C 217.880 213.595,217.619 213.190,217.619 213.300 M256.431 215.831 C 255.751 217.278,255.226 218.493,255.264 218.531 C 255.302 218.569,255.889 217.416,256.569 215.969 C 257.249 214.522,257.774 213.307,257.736 213.269 C 257.698 213.231,257.111 214.384,256.431 215.831 M230.638 214.710 C 230.035 215.950,230.102 216.123,230.723 214.930 C 231.001 214.397,231.193 213.927,231.151 213.885 C 231.110 213.843,230.878 214.214,230.638 214.710 M218.819 215.900 C 218.819 216.010,219.080 216.595,219.400 217.200 C 219.720 217.805,219.981 218.210,219.981 218.100 C 219.981 217.990,219.720 217.405,219.400 216.800 C 219.080 216.195,218.819 215.790,218.819 215.900 M229.638 216.910 C 229.035 218.150,229.102 218.323,229.723 217.130 C 230.001 216.597,230.193 216.127,230.151 216.085 C 230.110 216.043,229.878 216.414,229.638 216.910 M228.638 219.110 C 228.035 220.350,228.102 220.523,228.723 219.330 C 229.001 218.797,229.193 218.327,229.151 218.285 C 229.110 218.243,228.878 218.614,228.638 219.110 M220.019 218.500 C 220.019 218.610,220.280 219.195,220.600 219.800 C 220.920 220.405,221.181 220.810,221.181 220.700 C 221.181 220.590,220.920 220.005,220.600 219.400 C 220.280 218.795,220.019 218.390,220.019 218.500 M253.231 222.731 C 252.224 224.896,251.431 226.698,251.469 226.736 C 251.507 226.773,252.362 225.033,253.369 222.869 C 254.376 220.704,255.169 218.902,255.131 218.864 C 255.093 218.827,254.238 220.567,253.231 222.731 M226.377 224.091 C 225.455 226.129,224.651 227.797,224.590 227.798 C 224.530 227.799,224.044 226.853,223.512 225.695 C 222.979 224.537,222.511 223.622,222.472 223.662 C 222.374 223.760,224.447 228.200,224.591 228.200 C 224.732 228.200,228.220 220.554,228.123 220.457 C 228.085 220.418,227.299 222.054,226.377 224.091 M221.219 221.100 C 221.219 221.210,221.480 221.795,221.800 222.400 C 222.120 223.005,222.381 223.410,222.381 223.300 C 222.381 223.190,222.120 222.605,221.800 222.000 C 221.480 221.395,221.219 220.990,221.219 221.100 M196.420 223.900 C 196.420 224.010,196.771 224.775,197.200 225.600 C 197.629 226.425,197.980 227.010,197.980 226.900 C 197.980 226.790,197.629 226.025,197.200 225.200 C 196.771 224.375,196.420 223.790,196.420 223.900 M250.031 229.631 C 249.351 231.078,248.826 232.293,248.864 232.331 C 248.902 232.369,249.489 231.216,250.169 229.769 C 250.849 228.322,251.374 227.107,251.336 227.069 C 251.298 227.031,250.711 228.184,250.031 229.631 M198.020 227.300 C 198.020 227.410,198.371 228.175,198.800 229.000 C 199.229 229.825,199.580 230.410,199.580 230.300 C 199.580 230.190,199.229 229.425,198.800 228.600 C 198.371 227.775,198.020 227.190,198.020 227.300 M199.623 230.726 C 199.842 231.368,204.471 240.996,204.531 240.936 C 204.609 240.858,199.872 230.799,199.671 230.615 C 199.602 230.552,199.580 230.602,199.623 230.726 M247.431 235.231 C 246.751 236.678,246.226 237.893,246.264 237.931 C 246.302 237.969,246.889 236.816,247.569 235.369 C 248.249 233.922,248.774 232.707,248.736 232.669 C 248.698 232.631,248.111 233.784,247.431 235.231 M128.350 235.147 C 128.928 235.188,129.873 235.188,130.450 235.147 C 131.028 235.107,130.555 235.074,129.400 235.074 C 128.245 235.074,127.772 235.107,128.350 235.147 M121.673 236.791 C 117.843 238.717,113.723 243.236,112.912 246.400 C 112.842 246.675,113.101 246.238,113.489 245.430 C 115.301 241.650,118.647 238.358,122.483 236.582 C 123.152 236.272,123.598 236.014,123.473 236.009 C 123.348 236.004,122.538 236.356,121.673 236.791 M137.300 236.959 C 140.882 238.936,143.831 242.057,145.518 245.658 C 145.787 246.231,145.951 246.475,145.883 246.200 C 145.128 243.138,138.644 236.366,136.504 236.404 C 136.392 236.406,136.750 236.656,137.300 236.959 M244.831 240.831 C 244.151 242.278,243.626 243.493,243.664 243.531 C 243.702 243.569,244.289 242.416,244.969 240.969 C 245.649 239.522,246.174 238.307,246.136 238.269 C 246.098 238.231,245.511 239.384,244.831 240.831 M204.620 241.300 C 204.620 241.410,204.971 242.175,205.400 243.000 C 205.829 243.825,206.180 244.410,206.180 244.300 C 206.180 244.190,205.829 243.425,205.400 242.600 C 204.971 241.775,204.620 241.190,204.620 241.300 M242.939 244.910 C 242.205 246.407,242.272 246.585,243.023 245.130 C 243.355 244.486,243.593 243.927,243.552 243.886 C 243.511 243.845,243.235 244.306,242.939 244.910 M206.223 244.725 C 206.447 245.377,212.669 258.397,212.728 258.338 C 212.807 258.260,206.478 244.805,206.275 244.619 C 206.204 244.554,206.180 244.601,206.223 244.725 M241.031 249.031 C 240.351 250.478,239.826 251.693,239.864 251.731 C 239.902 251.769,240.489 250.616,241.169 249.169 C 241.849 247.722,242.374 246.507,242.336 246.469 C 242.298 246.431,241.711 247.584,241.031 249.031 M111.875 252.900 C 111.875 254.110,111.908 254.579,111.948 253.943 C 111.988 253.306,111.987 252.316,111.947 251.743 C 111.907 251.169,111.874 251.690,111.875 252.900 M238.431 254.631 C 237.751 256.078,237.226 257.293,237.264 257.331 C 237.302 257.369,237.889 256.216,238.569 254.769 C 239.249 253.322,239.774 252.107,239.736 252.069 C 239.698 252.031,239.111 253.184,238.431 254.631 M146.314 257.714 C 146.241 258.007,146.219 258.286,146.266 258.333 C 146.313 258.380,146.412 258.179,146.486 257.886 C 146.559 257.593,146.581 257.314,146.534 257.267 C 146.487 257.220,146.388 257.421,146.314 257.714 M112.410 257.742 C 112.397 258.053,113.216 260.251,113.310 260.157 C 113.349 260.118,113.165 259.504,112.901 258.793 C 112.637 258.082,112.416 257.609,112.410 257.742 M236.618 258.550 C 234.925 262.036,232.342 264.481,229.100 265.666 C 228.330 265.948,227.810 266.183,227.945 266.189 C 229.142 266.242,232.508 264.285,234.041 262.644 C 235.291 261.305,237.404 257.937,237.152 257.685 C 237.110 257.643,236.870 258.032,236.618 258.550 M145.516 259.916 C 143.917 263.585,141.028 266.654,137.300 268.643 C 136.530 269.053,135.976 269.392,136.069 269.395 C 137.055 269.425,141.218 266.468,142.712 264.675 C 144.236 262.847,146.462 258.996,146.167 258.700 C 146.120 258.654,145.827 259.201,145.516 259.916 M212.803 258.639 C 212.769 260.045,218.078 265.600,219.455 265.600 C 219.577 265.600,219.142 265.280,218.488 264.888 C 216.527 263.714,214.889 261.942,213.230 259.200 C 212.997 258.815,212.805 258.563,212.803 258.639 M113.400 260.509 C 113.400 262.156,118.340 267.171,121.544 268.776 C 123.405 269.709,123.345 269.517,121.468 268.531 C 118.469 266.956,116.143 264.769,114.319 261.809 C 113.813 260.989,113.400 260.404,113.400 260.509 M223.746 266.544 C 224.101 266.589,224.731 266.589,225.146 266.546 C 225.560 266.503,225.270 266.467,224.500 266.466 C 223.730 266.465,223.390 266.500,223.746 266.544 M128.550 270.546 C 129.018 270.589,129.782 270.589,130.250 270.546 C 130.718 270.504,130.335 270.470,129.400 270.470 C 128.465 270.470,128.083 270.504,128.550 270.546 " stroke="none" fill="#9e8207" fill-rule="evenodd"></path><path id="path2" d="M128.146 125.144 C 128.501 125.189,129.131 125.189,129.546 125.146 C 129.960 125.103,129.670 125.067,128.900 125.066 C 128.130 125.065,127.790 125.100,128.146 125.144 " stroke="none" fill="#d4ac04" fill-rule="evenodd"></path><path id="path3" d="" stroke="none" fill="#c4a404" fill-rule="evenodd"></path><path id="path4" d="M141.500 240.200 C 141.930 240.640,142.326 241.000,142.381 241.000 C 142.436 241.000,142.130 240.640,141.700 240.200 C 141.270 239.760,140.874 239.400,140.819 239.400 C 140.764 239.400,141.070 239.760,141.500 240.200 M117.000 265.300 C 117.373 265.685,117.723 266.000,117.778 266.000 C 117.833 266.000,117.573 265.685,117.200 265.300 C 116.827 264.915,116.477 264.600,116.422 264.600 C 116.367 264.600,116.627 264.915,117.000 265.300 " stroke="none" fill="#e4c404" fill-rule="evenodd"></path></g></svg>