<?xml version="1.0" encoding="utf-8"?>
<!-- Generator: Adobe Illustrator 16.0.0, SVG Export Plug-In . SVG Version: 6.00 Build 0)  -->
<!DOCTYPE svg PUBLIC "-//W3C//DTD SVG 1.1//EN" "http://www.w3.org/Graphics/SVG/1.1/DTD/svg11.dtd">
<svg version="1.1" id="Layer_1" xmlns="http://www.w3.org/2000/svg" xmlns:xlink="http://www.w3.org/1999/xlink" x="0px" y="0px"
	 width="2000px" height="2000px" viewBox="0 0 2000 2000" enable-background="new 0 0 2000 2000" xml:space="preserve">
<path fill="#EEEEEE" d="M1993.188,1207.256c0,195.155-56.277,377.167-153.504,530.671H160.316
	C63.091,1584.423,6.811,1402.411,6.811,1207.256c0-548.517,444.661-993.189,993.189-993.189S1993.188,658.739,1993.188,1207.256z"/>
<polygon fill="#00B8A9" stroke="#000000" stroke-width="25" stroke-linecap="round" stroke-linejoin="round" stroke-miterlimit="10" points="
	310.508,1463.611 310.508,1737.927 1126.817,1737.927 1126.817,1463.611 1057.366,1463.611 1057.366,1404.461 918.478,1404.461 
	918.478,1463.611 "/>
<polygon fill="#EF446C" stroke="#000000" stroke-width="25" stroke-linecap="round" stroke-linejoin="round" stroke-miterlimit="10" points="
	1313.748,820.892 1265.602,1090.938 718.661,993.429 766.807,723.38 1127.864,787.751 1139.903,720.234 1276.635,744.611 
	1264.596,812.128 "/>
<line fill="none" stroke="#000000" stroke-width="25" stroke-linecap="round" stroke-linejoin="round" stroke-miterlimit="10" x1="1127.864" y1="787.751" x2="1151.666" y2="791.994"/>
<line fill="none" stroke="#000000" stroke-width="25" stroke-linecap="round" stroke-linejoin="round" stroke-miterlimit="10" x1="1264.598" y1="812.128" x2="1217.748" y2="803.776"/>
<line fill="none" stroke="#000000" stroke-width="25" stroke-linecap="round" stroke-linejoin="round" stroke-miterlimit="10" x1="918.853" y1="1463.681" x2="943.03" y2="1463.681"/>
<line fill="none" stroke="#000000" stroke-width="25" stroke-linecap="round" stroke-linejoin="round" stroke-miterlimit="10" x1="1057.742" y1="1463.681" x2="1010.153" y2="1463.681"/>
<path fill="#F26C55" stroke="#000000" stroke-width="25" stroke-miterlimit="10" d="M810.613,1105.183l-88.704,88.703
	l-72.035-72.035l88.703-88.703c19.894-19.894,52.145-19.894,72.036-0.002C830.507,1053.038,830.506,1085.29,810.613,1105.183z"/>
<path fill="#FEDD7D" stroke="#000000" stroke-width="25" stroke-miterlimit="10" d="M737.703,1248.438v204.728
	c0,157.269-127.492,284.761-284.76,284.761s-284.759-134.576-284.759-291.843h284.759v-197.646
	c0-78.635,63.746-142.382,142.38-142.382C673.957,1106.058,737.703,1169.805,737.703,1248.438z"/>
<circle fill="#FFFFFF" stroke="#000000" stroke-width="25" stroke-miterlimit="10" cx="617.693" cy="1227.79" r="74.377"/>
<path fill="#F26C55" stroke="#000000" stroke-width="25" stroke-miterlimit="10" d="M1183.079,1195.751l112.351,55.804
	l45.314-91.239l-112.35-55.805c-25.195-12.513-55.766-2.234-68.278,22.959C1147.602,1152.668,1157.883,1183.237,1183.079,1195.751z"
	/>
<path fill="#FEDD7D" stroke="#000000" stroke-width="25" stroke-miterlimit="10" d="M1276.434,1248.438v204.728
	c0,157.269,127.49,284.761,284.762,284.761c157.266,0,284.758-134.576,284.758-291.843h-284.758v-197.646
	c0-78.635-63.747-142.382-142.381-142.382S1276.434,1169.805,1276.434,1248.438z"/>
<circle fill="#FFFFFF" stroke="#000000" stroke-width="25" stroke-miterlimit="10" cx="1389.281" cy="1237.667" r="74.377"/>
<polyline fill="none" stroke="#000000" stroke-width="25" stroke-linecap="round" stroke-linejoin="round" stroke-miterlimit="10" points="
	1980.239,1737.927 1781.078,1737.927 101.711,1737.927 19.762,1737.927 "/>
</svg>
