<?xml version="1.0" encoding="utf-8"?>
<!-- Generator: Adobe Illustrator 16.0.0, SVG Export Plug-In . SVG Version: 6.00 Build 0)  -->
<!DOCTYPE svg PUBLIC "-//W3C//DTD SVG 1.1//EN" "http://www.w3.org/Graphics/SVG/1.1/DTD/svg11.dtd">
<svg version="1.1" id="Layer_1" xmlns="http://www.w3.org/2000/svg" xmlns:xlink="http://www.w3.org/1999/xlink" x="0px" y="0px"
	 width="2000px" height="2000px" viewBox="0 0 2000 2000" enable-background="new 0 0 2000 2000" xml:space="preserve">
<path fill="#EFEEEE" d="M1993.688,1224.758c0,195.156-56.275,377.168-153.504,530.672H160.816
	C63.592,1601.926,7.312,1419.914,7.312,1224.758c0-548.515,444.661-993.188,993.188-993.188S1993.688,676.243,1993.688,1224.758z"/>
<g>
	<path fill="#F06C56" stroke="#020202" stroke-width="25" stroke-miterlimit="10" d="M1311.38,1319.665l-125.445-0.001v-101.872
		h125.445c28.134,0,50.939,22.807,50.938,50.938C1362.322,1296.864,1339.514,1319.669,1311.38,1319.665z"/>
	<path fill="#FCDD7E" stroke="#020202" stroke-width="25" stroke-miterlimit="10" d="M1211.202,1265.94v204.729
		c0,157.271-127.491,284.761-284.761,284.761c-157.268,0-284.76-134.573-284.76-291.843h284.76v-197.646
		c0-78.639,63.745-142.386,142.378-142.386C1147.455,1123.559,1211.202,1187.306,1211.202,1265.94z"/>
	<circle fill="#FFFFFF" stroke="#020202" stroke-width="25" stroke-miterlimit="10" cx="1093.311" cy="1268.731" r="74.377"/>
</g>
<polyline fill="none" stroke="#010101" stroke-width="25" stroke-linecap="round" stroke-linejoin="round" stroke-miterlimit="10" points="
	1982.238,1756.93 1781.578,1755.43 102.211,1755.43 21.762,1756.93 "/>
<g>
	<path fill="#967AB8" d="M641.664,793.396c-0.004-6.752-1.447-12.719-4.367-17.838c-2.869-5.037-7.164-9.257-12.927-12.593
		c-47.563-27.426-95.173-54.769-142.722-82.221c-12.819-7.401-25.248-7.129-37.971,0.376
		c-18.933,11.164-113.717,65.469-141.961,81.828c-11.632,6.736-17.292,17.041-17.295,30.434c-0.019,55.154,0,110.31-0.019,165.463
		c0,6.604,1.387,12.455,4.178,17.499c2.869,5.187,7.226,9.523,13.12,12.937c28.246,16.358,123.043,70.658,141.971,81.824
		c12.729,7.514,25.157,7.782,37.981,0.381c47.549-27.457,95.162-54.797,142.732-82.222c5.895-3.412,10.251-7.75,13.121-12.936
		c2.788-5.043,4.176-10.895,4.176-17.498C641.683,958.83,641.683,848.551,641.664,793.396"/>
	<path fill="#2D2164" d="M463.589,875.576L288.58,976.344c2.869,5.187,7.226,9.523,13.12,12.937
		c28.246,16.358,123.043,70.658,141.971,81.824c12.729,7.514,25.157,7.782,37.981,0.381c47.549-27.457,95.162-54.797,142.732-82.222
		c5.895-3.412,10.251-7.75,13.121-12.936L463.589,875.576z"/>
	<path fill="#402D87" d="M641.664,793.396c-0.004-6.752-1.447-12.719-4.367-17.838L463.589,875.578l173.917,100.75
		c2.787-5.043,4.172-10.895,4.176-17.498C641.683,958.83,641.683,848.551,641.664,793.396"/>
	<g>
		<path fill="#FFFFFF" d="M566.627,837.907v18.836h18.836v-18.836h9.418v18.836h18.835v9.417h-18.835v18.834h18.835v9.417h-18.835
			v18.836h-9.418v-18.836h-18.836v18.836h-9.416v-18.836h-18.834v-9.417h18.834V866.16h-18.834v-9.417h18.834v-18.836H566.627z
			 M585.463,866.159h-18.836v18.835h18.836V866.159z"/>
		<path fill="#FFFFFF" d="M463.974,743.314c49.128,0,92.021,26.681,114.994,66.339l-0.224-0.383l-57.804,33.282
			c-11.387-19.28-32.263-32.295-56.214-32.563l-0.755-0.004c-36.521,0-66.127,29.605-66.127,66.127
			c-0.013,11.511,2.995,22.823,8.721,32.81c11.399,19.897,32.827,33.32,57.408,33.32c24.733,0,46.284-13.592,57.623-33.704
			l-0.275,0.483l57.715,33.435c-22.723,39.323-65.027,65.921-113.584,66.45l-1.479,0.008c-49.283,0-92.296-26.845-115.213-66.713
			c-11.188-19.462-17.589-42.025-17.589-66.088C331.172,802.772,390.627,743.313,463.974,743.314L463.974,743.314z"/>
	</g>
</g>
<g>
	<path fill="#5482A2" d="M1628.68,1506.126c0,0-15.719,9.142,11.186,12.233c32.594,3.719,49.252,3.187,85.172-3.612
		c0,0,9.443,5.921,22.631,11.05C1667.148,1560.307,1565.436,1523.799,1628.68,1506.126"/>
	<path fill="#5482A2" d="M1618.84,1461.094c0,0-17.629,13.05,9.295,15.834c34.818,3.593,62.314,3.888,109.895-5.274
		c0,0,6.58,6.671,16.928,10.319C1657.604,1510.438,1549.168,1484.218,1618.84,1461.094"/>
	<path fill="#E57125" d="M1701.787,1384.703c19.84,22.843-5.214,43.396-5.214,43.396s50.38-26.006,27.242-58.571
		c-21.608-30.37-38.179-45.459,51.529-97.486C1775.346,1272.041,1634.532,1307.209,1701.787,1384.703"/>
	<path fill="#5482A2" d="M1808.281,1539.437c0,0,11.634,9.584-12.809,16.998c-46.479,14.079-193.445,18.332-234.271,0.563
		c-14.677-6.386,12.846-15.246,21.504-17.105c9.026-1.957,14.188-1.593,14.188-1.593c-16.321-11.498-105.494,22.577-45.295,32.335
		C1715.77,1597.257,1850.866,1558.644,1808.281,1539.437"/>
	<path fill="#5482A2" d="M1636.238,1414.435c0,0-74.756,17.756-26.473,24.204c20.387,2.729,61.026,2.11,98.883-1.061
		c30.938-2.609,62.002-8.158,62.002-8.158s-10.907,4.672-18.8,10.062c-75.915,19.965-222.567,10.678-180.348-9.745
		C1607.207,1412.478,1636.238,1414.435,1636.238,1414.435"/>
	<path fill="#5482A2" d="M1770.344,1489.394c77.168-40.101,41.488-78.636,16.586-73.443c-6.107,1.27-8.828,2.371-8.828,2.371
		s2.268-3.551,6.594-5.086c49.271-17.321,87.162,51.087-15.902,78.18C1768.791,1491.416,1769.986,1490.348,1770.344,1489.394"/>
	<path fill="#E57125" d="M1723.816,1188.03c0,0,42.74,42.751-40.535,108.493c-66.776,52.735-15.227,82.805-0.026,117.157
		c-38.979-35.168-67.584-66.127-48.395-94.938C1663.027,1276.446,1741.061,1255.938,1723.816,1188.03"/>
	<path fill="#5482A2" d="M1643.82,1598.058c74.075,4.741,187.823-2.632,190.517-37.681c0,0-5.177,13.287-61.218,23.839
		c-63.224,11.897-141.198,10.509-187.448,2.884C1585.672,1587.098,1595.138,1594.937,1643.82,1598.058"/>
</g>
<g>
	
		<linearGradient id="SVGID_1_" gradientUnits="userSpaceOnUse" x1="1.1873" y1="-2.7915" x2="2.2774" y2="-1.7098" gradientTransform="matrix(189.3834 0 0 189.8058 1122.2623 1255)">
		<stop  offset="0" style="stop-color:#3A7FB9"/>
		<stop  offset="1" style="stop-color:#386A95"/>
	</linearGradient>
	<path fill="url(#SVGID_1_)" d="M1515.093,686.854c-105.979,0-99.361,45.959-99.361,45.959l0.118,47.611h101.132v14.295h-141.303
		c0,0-67.816-7.691-67.816,99.244c0,106.932,59.191,103.144,59.191,103.144h35.326v-49.624c0,0-1.903-59.19,58.247-59.19h100.306
		c0,0,56.354,0.91,56.354-54.466v-91.563C1617.285,742.264,1625.845,686.854,1515.093,686.854L1515.093,686.854L1515.093,686.854z
		 M1459.326,718.872c10.062,0,18.193,8.133,18.193,18.194s-8.133,18.194-18.193,18.194c-10.062,0-18.193-8.133-18.193-18.194
		C1441.133,727.004,1449.266,718.872,1459.326,718.872L1459.326,718.872L1459.326,718.872z"/>
	
		<linearGradient id="SVGID_2_" gradientUnits="userSpaceOnUse" x1="1.509" y1="-2.4365" x2="2.6797" y2="-1.3274" gradientTransform="matrix(189.3834 0 0 189.8058 1188.2623 1319.25)">
		<stop  offset="0" style="stop-color:#FEE053"/>
		<stop  offset="1" style="stop-color:#FFC433"/>
	</linearGradient>
	<path fill="url(#SVGID_2_)" d="M1518.103,1102.147c105.979,0,99.36-45.959,99.36-45.959l-0.118-47.612h-101.134v-14.297h141.305
		c0,0,67.813,7.688,67.813-99.243c0-106.934-59.19-103.143-59.19-103.143h-35.325v49.622c0,0,1.903,59.192-58.245,59.192h-100.307
		c0,0-56.357-0.912-56.357,54.464v91.563C1415.904,1046.734,1407.348,1102.147,1518.103,1102.147L1518.103,1102.147
		L1518.103,1102.147z M1573.865,1070.129c-10.061,0-18.195-8.133-18.195-18.192c0-10.063,8.136-18.195,18.195-18.195
		c10.063,0,18.195,8.133,18.195,18.195C1592.062,1061.996,1583.929,1070.129,1573.865,1070.129L1573.865,1070.129L1573.865,1070.129
		z"/>
</g>
<path fill="#010101" d="M290.994,1241.313c0-6.546,5.305-11.852,11.848-11.852c6.548,0,11.854,5.307,11.854,11.852
	c0,6.543-5.305,11.848-11.854,11.848C296.299,1253.16,290.994,1247.854,290.994,1241.313 M149.631,1348.586
	c0-6.543,5.305-11.849,11.849-11.849c6.543,0,11.848,5.306,11.848,11.849l0,0c0,6.545-5.305,11.851-11.848,11.851
	S149.631,1355.131,149.631,1348.586 M432.353,1349.137c0-6.543,5.305-11.849,11.851-11.849c6.547,0,11.852,5.306,11.852,11.849
	s-5.305,11.849-11.852,11.849C437.656,1360.984,432.353,1355.68,432.353,1349.137 M183.919,1365.406
	c5.451-2.435,7.909-8.818,5.494-14.277l-5.257-11.889h20.682v93.194h-41.725c-5.149-18.086-6.753-36.994-4.724-55.688
	L183.919,1365.406z M270.41,1367.7v-27.475h49.237c2.542,0,17.947,2.941,17.947,14.455c0,9.565-11.839,13.006-21.561,13.006
	L270.41,1367.7z M203.18,1515.604c0-6.546,5.305-11.852,11.851-11.852c6.542,0,11.849,5.306,11.849,11.852
	s-5.306,11.852-11.849,11.852C208.485,1527.456,203.18,1522.15,203.18,1515.604 M378.768,1516.153
	c0-6.549,5.306-11.854,11.85-11.854c6.547,0,11.853,5.305,11.853,11.854c0,6.544-5.306,11.851-11.853,11.851
	C384.073,1528.004,378.768,1522.697,378.768,1516.153 M382.431,1489.275c-5.854-1.241-11.583,2.47-12.831,8.31l-5.943,27.761
	c-38.704,17.532-83.13,17.32-121.667-0.584l-5.939-27.761c-1.247-5.853-6.979-9.568-12.833-8.31l-24.508,5.256
	c-4.555-4.685-8.788-9.679-12.672-14.937h119.235c1.345,0,2.245-0.249,2.245-1.472v-42.178c0-1.241-0.9-1.466-2.245-1.466h-34.887
	v-26.738h37.715c3.438,0,18.403,0.998,23.204,20.111l7.032,31.147c2.245,6.853,11.376,20.594,21.098,20.594h61.547
	c-4.13,5.523-8.644,10.75-13.522,15.636L382.431,1489.275z M448.644,1377.914c0.834,8.42,0.938,16.895,0.306,25.332H434
	c-1.495,0-2.123,0.992-2.123,2.452v6.88c0,16.194-9.113,19.682-17.113,20.594c-7.6,0.877-16.072-3.188-17.094-7.848
	c-4.484-25.271-11.961-30.649-23.672-39.994c14.66-9.32,29.925-23.051,29.925-41.453c0-19.861-13.621-32.367-22.899-38.498
	c-13.023-8.6-27.437-10.305-31.324-10.305H194.772c21.399-23.912,50.086-40.104,81.618-46.063l18.254,19.151
	c4.112,4.321,10.966,4.485,15.276,0.35l20.435-19.524c42.123,7.888,78.649,33.9,99.881,71.13l-13.979,31.569
	c-2.408,5.465,0.048,11.846,5.5,14.279L448.644,1377.914z M483.504,1378.413l-0.476-4.882l14.405-13.434
	c2.92-2.74,1.824-8.222-1.911-9.618l-18.402-6.878l-1.44-4.731l11.46-15.948c2.336-3.24,0.183-8.411-3.735-9.059l-19.418-3.151
	l-2.325-4.362l8.158-17.903c1.673-3.65-1.429-8.311-5.444-8.161l-19.688,0.688l-3.115-3.778l4.527-19.188
	c0.906-3.898-3.041-7.848-6.941-6.938l-19.188,4.522l-3.791-3.115l0.688-19.687c0.152-3.985-4.509-7.101-8.146-5.445l-17.899,8.161
	l-4.354-2.342l-3.163-19.41c-0.621-3.939-5.816-6.08-9.065-3.738l-15.938,11.461l-4.738-1.432l-6.881-18.403
	c-1.394-3.734-6.887-4.833-9.612-1.915l-13.433,14.398l-4.885-0.472l-10.367-16.758c-2.094-3.389-7.724-3.389-9.805,0
	l-10.365,16.758l-4.885,0.472l-13.458-14.429c-2.74-2.912-8.223-1.829-9.618,1.921l-6.878,18.402l-4.732,1.434l-15.949-11.466
	c-3.238-2.342-8.423-0.186-9.059,3.742l-3.163,19.409l-4.362,2.343l-17.892-8.162c-3.638-1.656-8.311,1.457-8.149,5.445
	l0.688,19.687l-3.787,3.114l-19.188-4.521c-3.898-0.909-7.851,3.038-6.94,6.938l4.522,19.188l-3.114,3.774l-19.688-0.686
	c-3.983-0.124-7.099,4.512-5.445,8.162l8.162,17.904l-2.342,4.356l-19.41,3.155c-3.938,0.624-6.081,5.819-3.738,9.056l11.462,15.951
	l-1.445,4.732l-18.403,6.878c-3.737,1.396-4.833,6.89-1.903,9.618l14.402,13.43l-0.475,4.886l-16.757,10.366
	c-3.39,2.093-3.39,7.728,0,9.808l16.757,10.365l0.475,4.887l-14.441,13.479c-2.915,2.738-1.832,8.219,1.906,9.612l18.403,6.88
	l1.444,4.734l-11.461,15.95c-2.33,3.236-0.188,8.421,3.734,9.059l19.401,3.15l2.342,4.355l-8.161,17.898
	c-1.658,3.639,1.47,8.311,5.444,8.157l19.687-0.687l3.115,3.79l-4.522,19.187c-0.909,3.889,3.039,7.85,6.938,6.932l19.188-4.527
	l3.787,3.115l-0.685,19.687c-0.148,3.985,4.51,7.102,8.148,5.446l17.892-8.16l4.359,2.336l3.167,19.402
	c0.62,3.947,5.814,6.076,9.055,3.764l15.948-11.483l4.735,1.44l6.878,18.402c1.393,3.736,6.89,4.83,9.617,1.904l13.431-14.4
	l4.885,0.5l10.367,16.754c2.093,3.363,7.698,3.389,9.801,0l10.367-16.754l4.891-0.5l13.433,14.4c2.738,2.926,8.22,1.832,9.612-1.904
	l6.875-18.402l4.739-1.44l15.944,11.483c3.242,2.326,8.426,0.185,9.064-3.764l3.163-19.402l4.354-2.336l17.899,8.16
	c3.637,1.654,8.297-1.449,8.139-5.446l-0.68-19.687l3.771-3.115l19.188,4.527c3.906,0.905,7.847-3.043,6.942-6.932l-4.521-19.187
	l3.115-3.79l19.687,0.687c3.984,0.165,7.1-4.52,5.439-8.157l-8.159-17.898l2.331-4.355l19.412-3.15
	c3.948-0.626,6.102-5.811,3.741-9.059l-11.467-15.95l1.44-4.734l18.41-6.88c3.735-1.405,4.831-6.886,1.904-9.612l-14.399-13.432
	l0.474-4.888l16.755-10.364c3.389-2.095,3.399-7.702,0-9.808L483.504,1378.413z"/>
<g>
	<path fill="#5C8DBD" d="M1179.391,470.649c-0.002-6.78-1.453-12.772-4.386-17.914c-2.88-5.059-7.194-9.297-12.981-12.647
		c-47.77-27.543-95.584-55.003-143.336-82.574c-12.875-7.433-25.357-7.161-38.136,0.378
		c-19.013,11.213-114.206,65.75-142.572,82.181c-11.682,6.763-17.367,17.112-17.37,30.564c-0.018,55.393,0,110.781-0.018,166.176
		c0.002,6.633,1.391,12.508,4.195,17.572c2.882,5.21,7.257,9.564,13.177,12.992c28.368,16.43,123.573,70.963,142.583,82.18
		c12.783,7.543,25.266,7.813,38.145,0.378c47.754-27.572,95.572-55.029,143.348-82.574c5.921-3.426,10.296-7.783,13.178-12.988
		c2.8-5.065,4.189-10.941,4.192-17.575C1179.408,636.797,1179.408,526.044,1179.391,470.649"/>
	<path fill="#194775" d="M1000.549,553.185L824.786,654.386c2.882,5.21,7.257,9.564,13.178,12.992
		c28.368,16.43,123.572,70.963,142.583,82.18c12.783,7.543,25.266,7.813,38.145,0.378c47.754-27.572,95.572-55.029,143.348-82.574
		c5.921-3.426,10.296-7.783,13.178-12.988L1000.549,553.185"/>
	<path fill="#194775" d="M948.49,583.162c10.229,17.854,29.454,29.896,51.51,29.896c22.192,0,41.528-12.194,51.705-30.241
		l-51.155-29.634L948.49,583.162"/>
	<path fill="#1B5A8F" d="M1179.391,470.649c-0.002-6.78-1.453-12.772-4.386-17.914l-174.456,100.448l174.667,101.188
		c2.799-5.065,4.189-10.941,4.192-17.575C1179.408,636.797,1179.408,526.044,1179.391,470.649"/>
	<path fill="#FFFFFF" d="M1169.786,560.418h-13.648v13.652h-13.651v-13.652h-13.647v-13.646h13.647v-13.648h13.651v13.648h13.648
		V560.418 M1119.982,560.418h-13.646v13.652h-13.649v-13.652h-13.648v-13.646h13.648v-13.648h13.649v13.648h13.646V560.418"/>
	<path fill="#FFFFFF" d="M1051.703,582.817c-10.176,18.047-29.512,30.241-51.703,30.241c-22.057,0-41.282-12.043-51.511-29.896
		c-5.138-8.96-7.836-19.11-7.825-29.438c0-32.769,26.566-59.334,59.336-59.334c21.914,0,41.039,11.894,51.317,29.564l51.861-29.864
		c-20.613-35.583-59.101-59.522-103.179-59.522c-65.811,0-119.158,53.35-119.158,119.156c0,21.591,5.744,41.836,15.781,59.3
		c20.563,35.771,59.157,59.858,103.376,59.858c44.301,0,82.957-24.185,103.489-60.062L1051.703,582.817"/>
</g>
</svg>
